Jump_normalized_precision_landing08_filtered_grf
version=1
nRows=12
nColumns=37
inDegrees=yes
endheader
time		1_ground_force_vx		1_ground_force_vy		1_ground_force_vz		1_ground_force_px		1_ground_force_py		1_ground_force_pz		1_ground_torque_x		1_ground_torque_y		1_ground_torque_z		2_ground_force_vx		2_ground_force_vy		2_ground_force_vz		2_ground_force_px		2_ground_force_py		2_ground_force_pz		2_ground_torque_x		2_ground_torque_y		2_ground_torque_z		3_ground_force_vx		3_ground_force_vy		3_ground_force_vz		3_ground_force_px		3_ground_force_py		3_ground_force_pz		3_ground_torque_x		3_ground_torque_y		3_ground_torque_z		4_ground_force_vx		4_ground_force_vy		4_ground_force_vz		4_ground_force_px		4_ground_force_py		4_ground_force_pz		4_ground_torque_x		4_ground_torque_y		4_ground_torque_z		
1.117000		-0.000000		-0.000000		-0.000000		0.094183		0.000000		0.253884		-0.000000		-0.000000		0.000000		-0.000000		-0.000000		-0.000000		-0.197135		0.000000		0.253200		-0.000000		0.000000		-0.000000		-79.050619		593.380423		68.965648		0.381637		1.273562		1.885844		3.892940		-29.221713		-3.396294		88.720483		460.334472		26.512153		-0.352557		1.266951		1.874097		3.106038		16.115968		0.928171		
1.119778		-0.000000		0.000000		0.000000		0.094183		0.000000		0.253884		0.000000		0.000000		-0.000000		-0.000000		-0.000000		-0.000000		-0.197135		0.000000		0.253200		-0.000000		0.000000		-0.000000		-78.893165		596.386530		67.926161		0.381620		1.273544		1.885891		3.895361		-29.446670		-3.353862		89.279041		462.897712		25.600670		-0.352551		1.266956		1.874154		3.127652		16.216385		0.896851		
1.122556		-0.000000		0.000000		0.000000		0.094183		0.000000		0.253884		0.000000		0.000000		-0.000000		0.000000		-0.000000		-0.000000		-0.197135		0.000000		0.253200		-0.000000		0.000000		-0.000000		-78.688216		599.226529		66.869099		0.381605		1.273530		1.885938		3.895518		-29.665151		-3.310403		89.839929		465.667389		24.573363		-0.352530		1.266968		1.874226		3.149862		16.326681		0.861562		
1.125333		-0.000000		0.000000		0.000000		0.094183		0.000000		0.253884		0.000000		0.000000		-0.000000		0.000000		0.000000		-0.000000		-0.197135		0.000000		0.253200		0.000000		0.000000		0.000000		-78.444774		601.989503		65.850135		0.381594		1.273518		1.885982		3.893446		-29.878523		-3.268336		90.415575		468.668493		23.495128		-0.352498		1.266988		1.874303		3.172996		16.447202		0.824525		
1.128111		-0.000000		0.000000		0.000000		0.094183		0.000000		0.253884		0.000000		0.000000		-0.000000		0.000000		0.000000		0.000000		-0.197135		0.000000		0.253200		0.000000		-0.000000		0.000000		-78.184434		604.730283		64.917658		0.381587		1.273512		1.886020		3.889808		-30.086362		-3.229763		91.014979		471.899008		22.435125		-0.352461		1.267008		1.874378		3.197222		16.577112		0.788113		
1.130889		-0.000000		0.000000		0.000000		0.094183		0.000000		0.253884		0.000000		0.000000		-0.000000		0.000000		0.000000		0.000000		-0.197135		0.000000		0.253200		0.000000		-0.000000		0.000000		-77.935111		607.455713		64.095073		0.381581		1.273510		1.886052		3.885740		-30.286928		-3.195694		91.642120		475.341519		21.434872		-0.352426		1.267026		1.874443		3.222528		16.715036		0.753741		
1.133667		0.000000		-0.000000		0.000000		0.094183		0.000000		0.253884		0.000000		0.000000		-0.000000		0.000000		0.000000		0.000000		-0.197135		0.000000		0.253200		0.000000		-0.000000		0.000000		-77.720945		610.126381		63.378172		0.381577		1.273513		1.886078		3.882425		-30.477890		-3.165955		92.294246		478.969085		20.500142		-0.352399		1.267038		1.874495		3.248691		16.859367		0.721590		
1.136444		0.000000		-0.000000		-0.000000		0.094183		0.000000		0.253884		-0.000000		-0.000000		0.000000		0.000000		0.000000		0.000000		-0.197135		0.000000		0.253200		0.000000		-0.000000		0.000000		-77.551706		612.671152		62.732299		0.381570		1.273520		1.886102		3.880508		-30.656645		-3.138979		92.963773		482.754695		19.598543		-0.352380		1.267044		1.874534		3.275372		17.008789		0.690511		
1.139222		0.000000		-0.000000		-0.000000		0.094183		0.000000		0.253884		-0.000000		-0.000000		0.000000		-0.000000		0.000000		0.000000		-0.197135		0.000000		0.253200		0.000000		-0.000000		0.000000		-77.419425		615.005630		62.095943		0.381563		1.273527		1.886126		3.879788		-30.820320		-3.111868		93.642071		486.677148		18.667573		-0.352372		1.267045		1.874565		3.302284		17.162652		0.658311		
1.142000		0.000000		-0.000000		-0.000000		0.094183		0.000000		0.253884		-0.000000		-0.000000		0.000000		-0.000000		-0.000000		0.000000		-0.197135		0.000000		0.253200		-0.000000		-0.000000		-0.000000		-77.300698		617.059553		61.395871		0.381553		1.273533		1.886153		3.879301		-30.966857		-3.081124		94.320692		490.715673		17.633796		-0.352371		1.267043		1.874592		3.329231		17.320757		0.622419		
1.144778		0.000000		-0.000000		-0.000000		0.094183		0.000000		0.253884		-0.000000		-0.000000		0.000000		-0.000000		-0.000000		-0.000000		-0.197135		0.000000		0.253200		-0.000000		0.000000		-0.000000		-77.165208		618.780624		60.562243		0.381540		1.273534		1.886185		3.877746		-31.095288		-3.043405		94.990805		494.850710		16.426340		-0.352377		1.267041		1.874621		3.356037		17.483137		0.580344		
1.147556		0.000000		-0.000000		-0.000000		0.094183		0.000000		0.253884		-0.000000		-0.000000		0.000000		-0.000000		-0.000000		-0.000000		-0.197135		0.000000		0.253200		-0.000000		0.000000		-0.000000		-76.984647		620.158118		59.550013		0.381526		1.273529		1.886221		3.874003		-31.207446		-2.996661		95.641600		499.053993		15.003127		-0.352387		1.267041		1.874656		3.382445		17.649463		0.530598		
